<svg width="348" height="348" viewBox="0 0 348 348" fill="none" xmlns="http://www.w3.org/2000/svg">
<g clip-path="url(#clip0_1_70)" filter="url(#filter0_d_1_70)">
<path opacity="0.5" fill-rule="evenodd" clip-rule="evenodd" d="M174 340C267.888 340 344 263.888 344 170C344 76.1116 267.888 0 174 0C80.1116 0 4 76.1116 4 170C4 263.888 80.1116 340 174 340ZM174 320.916C257.349 320.916 324.916 253.348 324.916 170C324.916 86.6515 257.349 19.0842 174 19.0842C90.6516 19.0842 23.0842 86.6515 23.0842 170C23.0842 253.348 90.6516 320.916 174 320.916Z" fill="white"/>
</g>
<defs>
<filter id="filter0_d_1_70" x="0" y="0" width="348" height="348" filterUnits="userSpaceOnUse" color-interpolation-filters="sRGB">
<feFlood flood-opacity="0" result="BackgroundImageFix"/>
<feColorMatrix in="SourceAlpha" type="matrix" values="0 0 0 0 0 0 0 0 0 0 0 0 0 0 0 0 0 0 127 0" result="hardAlpha"/>
<feOffset dy="4"/>
<feGaussianBlur stdDeviation="2"/>
<feComposite in2="hardAlpha" operator="out"/>
<feColorMatrix type="matrix" values="0 0 0 0 0 0 0 0 0 0 0 0 0 0 0 0 0 0 0.25 0"/>
<feBlend mode="normal" in2="BackgroundImageFix" result="effect1_dropShadow_1_70"/>
<feBlend mode="normal" in="SourceGraphic" in2="effect1_dropShadow_1_70" result="shape"/>
</filter>
<clipPath id="clip0_1_70">
<rect width="340" height="340" fill="white" transform="translate(4)"/>
</clipPath>
</defs>
</svg>
